<svg xmlns="http://www.w3.org/2000/svg" viewBox="0 0 420 260" fill="none">
  <g stroke="#3f675e" stroke-linecap="round" stroke-linejoin="round">
    <path d="M420 20c-58 3-104 18-138 45-31 25-50 56-81 73-29 16-65 21-108 16" stroke-width="6" opacity=".58"/>
    <path d="M420 53c-48 2-87 14-116 36-27 20-44 46-71 60-25 12-55 16-91 12" stroke-width="3.5" opacity=".4"/>
    <path d="M408 2c-21 27-32 53-32 79 0 22 7 41 21 58" stroke-width="3.5" opacity=".44"/>
  </g>
  <g stroke="#8d7144" stroke-linecap="round" stroke-linejoin="round" opacity=".68">
    <path d="M411 92c-29 14-50 34-62 60-10 22-26 38-48 48-20 9-43 11-69 5" stroke-width="2.5"/>
    <path d="M369 166c8 14 10 28 6 42m0-20 13 7m-15 3-9 11" stroke-width="2"/>
  </g>
  <g stroke="#3f675e" stroke-linecap="round" stroke-linejoin="round" opacity=".76">
    <path d="M349 91c-17-16-17-35 1-53 18 18 17 38-1 53z" stroke-width="2.8"/>
    <path d="M348 91c-27-4-41-17-41-39 21-1 36 11 41 39z" stroke-width="2.5"/>
    <path d="M351 91c27-4 41-17 41-39-21-1-36 11-41 39z" stroke-width="2.5"/>
    <path d="M349 91c-21 10-33 25-34 45 19 3 31-8 34-45z" stroke-width="2.4"/>
    <path d="M351 91c21 10 33 25 34 45-19 3-31-8-34-45z" stroke-width="2.4"/>
  </g>
  <g fill="#f5f8f6" stroke="#8d7144" stroke-width="2" opacity=".9">
    <circle cx="391" cy="42" r="8"/>
    <circle cx="373" cy="60" r="5"/>
    <circle cx="359" cy="77" r="3.5"/>
  </g>
  <g fill="#a9cfc1" stroke="#3f675e" stroke-width="1.8" opacity=".78">
    <circle cx="311" cy="197" r="7"/>
    <circle cx="287" cy="204" r="4.5"/>
    <circle cx="266" cy="207" r="3"/>
  </g>
</svg>
