<svg xmlns="http://www.w3.org/2000/svg" viewBox="0 0 360 280" fill="none">
  <g stroke="#3f675e" stroke-linecap="round" stroke-linejoin="round">
    <path d="M0 254c56-3 104-17 143-42 35-23 61-52 95-67 31-13 67-15 110-7" stroke-width="6" opacity=".56"/>
    <path d="M0 226c48-1 88-12 121-33 29-18 52-43 81-55 27-11 58-13 93-7" stroke-width="3.5" opacity=".38"/>
  </g>
  <g stroke="#8d7144" stroke-linecap="round" stroke-linejoin="round">
    <path d="M20 280c8-43 24-78 49-105 20-22 32-46 35-73" stroke-width="5.5" opacity=".58"/>
    <path d="M53 201c-17-8-31-21-42-37m55 22c18-14 30-31 37-51m-70 92c-14 2-27-1-38-8" stroke-width="3.2" opacity=".46"/>
    <path d="M101 125c-9-9-15-20-17-33m22 31c13-8 22-19 27-32" stroke-width="2.4" opacity=".42"/>
  </g>
  <g stroke="#3f675e" stroke-linecap="round" stroke-linejoin="round" opacity=".66">
    <path d="M126 220c13-16 28-22 43-17-1 16-10 28-27 35 15-1 26 4 34 15-11 10-27 9-40-1" stroke-width="2.5"/>
    <path d="M127 220c-16-12-31-14-43-5 5 15 16 24 33 27-14 3-23 10-28 22 13 7 28 3 39-9" stroke-width="2.5"/>
  </g>
  <g fill="#f5f8f6" stroke="#8d7144" stroke-width="2" opacity=".9">
    <circle cx="44" cy="221" r="8"/>
    <circle cx="68" cy="198" r="5"/>
    <circle cx="92" cy="169" r="3.5"/>
  </g>
  <g fill="#d8b8ad" stroke="#8d7144" stroke-width="1.5" opacity=".68">
    <path d="M116 115c8-10 17-11 24-2-2 10-10 16-22 16-5-5-6-9-2-14z"/>
    <path d="M82 153c7-9 15-10 22-3-2 10-9 15-20 16-5-4-6-8-2-13z"/>
    <path d="M39 188c7-8 15-9 21-2-2 9-8 14-18 15-5-4-6-8-3-13z"/>
  </g>
</svg>
