<svg xmlns="http://www.w3.org/2000/svg" viewBox="0 0 360 280" fill="none">
  <g stroke="#5b3d82" stroke-linecap="round" stroke-linejoin="round">
    <path d="M0 254c54-3 101-17 140-42 34-22 59-50 92-65 29-13 64-16 105-9" stroke-width="6" opacity=".56"/>
    <path d="M0 226c45-1 84-12 117-32 28-18 50-42 78-55 26-11 55-14 89-9" stroke-width="3.5" opacity=".38"/>
  </g>
  <g stroke="#a87996" stroke-linecap="round" stroke-linejoin="round">
    <path d="M22 280c8-43 24-78 49-105 19-21 31-45 35-73" stroke-width="6" opacity=".6"/>
    <path d="M56 199c-17-9-31-21-42-37m55 22c18-14 30-30 37-50m-70 91c-15 2-28-1-39-8" stroke-width="3.5" opacity=".48"/>
    <path d="M103 124c-9-9-15-20-17-33m22 31c13-8 22-19 27-32" stroke-width="2.5" opacity=".44"/>
  </g>
  <g stroke="#6fa8b6" stroke-linecap="round" stroke-linejoin="round" opacity=".66">
    <path d="M132 219c13-16 28-22 43-17-1 16-10 28-27 35 15-1 26 4 34 15-11 10-27 9-40-1" stroke-width="2.5"/>
    <path d="M133 219c-16-12-31-14-43-5 5 15 16 24 33 27-14 3-23 10-28 22 13 7 28 3 39-9" stroke-width="2.5"/>
  </g>
  <g fill="#f7f3f8" stroke="#7c6241" stroke-width="2" opacity=".9">
    <circle cx="46" cy="220" r="8"/>
    <circle cx="70" cy="197" r="5"/>
    <circle cx="94" cy="168" r="3.5"/>
  </g>
  <g fill="#a87996" opacity=".54">
    <path d="M118 115c8-10 17-11 24-2-2 10-10 16-22 16-5-5-6-9-2-14z"/>
    <path d="M83 153c7-9 15-10 22-3-2 10-9 15-20 16-5-4-6-8-2-13z"/>
    <path d="M39 187c7-8 15-9 21-2-2 9-8 14-18 15-5-4-6-8-3-13z"/>
  </g>
</svg>
