<svg xmlns="http://www.w3.org/2000/svg" viewBox="0 0 420 260" fill="none">
  <g stroke="#5b3d82" stroke-linecap="round" stroke-linejoin="round">
    <path d="M420 18c-57 4-102 20-135 48-30 25-48 57-78 75-27 17-61 24-103 22" stroke-width="6" opacity=".58"/>
    <path d="M420 52c-47 4-84 17-112 39-25 20-42 47-67 61-23 13-51 19-84 18" stroke-width="3.5" opacity=".4"/>
    <path d="M407 2c-22 29-34 57-34 84 0 21 7 40 20 57" stroke-width="4" opacity=".48"/>
  </g>
  <g stroke="#6fa8b6" stroke-linecap="round" stroke-linejoin="round" opacity=".72">
    <path d="M336 85c-20-24-43-27-57-12 7 22 23 35 48 38-18 4-29 14-35 30 17 9 37 3 50-16" stroke-width="3"/>
    <path d="M347 84c20-22 42-24 55-8-8 21-24 33-47 35 17 5 28 15 33 30-18 8-36 1-48-17" stroke-width="3"/>
    <path d="M341 80c-5 17-4 34 2 50m-8-43-13-15m25 14 13-16" stroke-width="2.5"/>
  </g>
  <g fill="#f7f3f8" stroke="#7c6241" stroke-width="2" opacity=".9">
    <circle cx="385" cy="49" r="8"/>
    <circle cx="366" cy="68" r="5"/>
    <circle cx="350" cy="86" r="3.5"/>
  </g>
  <g stroke="#a79cad" stroke-linecap="round" opacity=".58">
    <path d="M398 144c-8 19-22 34-42 45-18 10-38 13-61 9" stroke-width="2.5"/>
    <path d="M380 165c-4 15-3 28 4 40m-4-17-12 9m16-3 11 8" stroke-width="2"/>
    <circle cx="327" cy="197" r="5" stroke-width="2"/>
    <circle cx="304" cy="201" r="3.5" stroke-width="2"/>
  </g>
</svg>
