<svg xmlns="http://www.w3.org/2000/svg" viewBox="0 0 420 260" fill="none">
  <g stroke="#315b7a" stroke-linecap="round" stroke-linejoin="round">
    <path d="M420 20c-51 0-92 8-124 24-29 15-51 36-74 58-22 21-48 35-79 42" stroke-width="6" opacity=".58"/>
    <path d="M420 52c-43 0-78 7-105 20-25 12-44 30-64 49-19 17-40 29-66 35" stroke-width="3.5" opacity=".4"/>
    <path d="M419 4c-26 24-39 49-39 75 0 22 8 42 23 59" stroke-width="3" opacity=".42"/>
  </g>
  <g stroke="#738fa2" stroke-linecap="round" opacity=".62">
    <path d="M420 78c-63 4-115 19-156 44-25 15-47 31-67 48" stroke-width="2.6"/>
    <path d="M420 88c-60 5-110 19-150 42-25 14-47 30-67 46" stroke-width="2.3"/>
    <path d="M420 98c-57 5-105 19-144 40-24 13-45 28-65 43" stroke-width="2"/>
    <path d="M420 108c-54 6-100 19-138 38-23 12-44 26-63 40" stroke-width="1.8"/>
    <path d="M420 118c-51 6-96 18-132 35-22 11-42 24-61 37" stroke-width="1.6"/>
    <path d="M420 128c-49 6-91 17-126 32-21 10-41 22-59 34" stroke-width="1.5"/>
    <path d="M420 138c-46 6-87 16-120 29-21 9-39 20-57 31" stroke-width="1.4"/>
  </g>
  <g fill="#f4f7fa" stroke="#94794f" stroke-width="1.8" opacity=".9">
    <circle cx="365" cy="92" r="5.5"/>
    <circle cx="338" cy="108" r="4.5"/>
    <circle cx="311" cy="124" r="4"/>
    <circle cx="285" cy="140" r="3.5"/>
    <circle cx="260" cy="155" r="3"/>
  </g>
  <g stroke="#94794f" stroke-linecap="round" stroke-linejoin="round" opacity=".68">
    <path d="M420 31h-42l-15 13-16-13h-34" stroke-width="2.4"/>
    <path d="M395 12l-13 18 13 17 13-17-13-18z" stroke-width="2"/>
    <path d="M247 205c24-10 47-12 69-5 21 7 43 5 66-6" stroke-width="2.2"/>
  </g>
</svg>
