<svg xmlns="http://www.w3.org/2000/svg" viewBox="0 0 360 280" fill="none">
  <g stroke="#315b7a" stroke-linecap="round" stroke-linejoin="round">
    <path d="M0 255c55-3 102-17 141-42 34-22 60-50 94-65 31-14 67-17 111-10" stroke-width="6" opacity=".56"/>
    <path d="M0 227c47-2 87-13 119-33 29-18 52-42 80-54 27-12 58-14 94-8" stroke-width="3.5" opacity=".38"/>
    <path d="M0 201c40-1 74-10 103-26 26-15 46-35 71-46 24-10 51-12 82-8" stroke-width="2" opacity=".3"/>
  </g>
  <g stroke="#738fa2" stroke-linecap="round" stroke-linejoin="round" opacity=".64">
    <path d="M18 280c6-44 22-80 48-108 21-22 34-47 38-75" stroke-width="5.5"/>
    <path d="M50 207c-18-8-33-21-44-38m57 22c19-14 32-31 39-52m-70 93c-14 2-27-1-39-8" stroke-width="3.2"/>
    <path d="M94 150l-29-15m34 2-17-27m24 17 2-32m5 36 20-25m-13 38 31-11" stroke-width="2.2"/>
    <path d="M65 178l-26-13m31 1-15-24m21 15 2-29m5 33 18-23" stroke-width="1.8"/>
  </g>
  <g stroke="#94794f" stroke-linecap="round" stroke-linejoin="round" opacity=".7">
    <path d="M21 246c48-8 87-25 118-51 27-23 56-34 88-32" stroke-width="2.4"/>
    <path d="M34 261c50-5 93-19 129-41 31-20 63-28 97-24" stroke-width="1.8"/>
    <path d="M50 274c49-2 91-11 127-28 34-16 67-21 100-15" stroke-width="1.4"/>
  </g>
  <g fill="#f4f7fa" stroke="#94794f" stroke-width="1.8" opacity=".9">
    <circle cx="48" cy="226" r="6"/>
    <circle cx="75" cy="205" r="4.8"/>
    <circle cx="104" cy="181" r="4"/>
    <circle cx="135" cy="157" r="3.2"/>
  </g>
</svg>
