<svg xmlns="http://www.w3.org/2000/svg" viewBox="0 0 360 280" fill="none">
  <g stroke="#263a53" stroke-linecap="round" stroke-linejoin="round">
    <path d="M0 260c72-8 128-28 171-61 39-30 64-71 103-92 24-13 51-20 82-22" stroke-width="8" opacity=".72"/>
    <path d="M84 237c14-31 34-55 61-73m-28 93c28-10 53-11 78-5m-42-93c20-5 37-18 53-38" stroke-width="5" opacity=".6"/>
    <path d="M39 250c-13-18-18-38-15-59m94 35c-10-16-14-34-11-53m81-27c-8-17-8-34-2-51" stroke-width="3" opacity=".48"/>
  </g>
  <g fill="#263a53" opacity=".66">
    <path d="M27 199c18 5 34 2 47-9-18-5-34-2-47 9Z"/>
    <path d="M108 178c16 10 32 11 47 4-16-10-32-12-47-4Z"/>
    <path d="M182 116c14 8 28 7 41-1-14-8-28-8-41 1Z"/>
    <path d="M273 91c-14-10-29-12-44-6 14 10 29 13 44 6Z"/>
  </g>
</svg>
