<svg xmlns="http://www.w3.org/2000/svg" viewBox="0 0 420 260" fill="none">
  <g stroke="#263a53" stroke-linecap="round" stroke-linejoin="round">
    <path d="M420 22C346 20 290 32 245 61c-40 26-70 63-112 79-31 12-69 12-111 7" stroke-width="8" opacity=".78"/>
    <path d="M312 42c-17 29-39 49-68 64m43-75c-32 5-58 3-83-7m35 86c-19 2-39 12-58 30" stroke-width="5" opacity=".65"/>
    <path d="M349 31c21 7 38 19 52 37m-94-15c12 16 18 34 17 55m-78-6c7 17 6 34-1 50" stroke-width="3" opacity=".5"/>
  </g>
  <g fill="#263a53" opacity=".7">
    <path d="M398 56c-18-7-34-5-48 4 18 7 34 5 48-4Z"/>
    <path d="M323 91c-16-12-31-15-47-10 15 12 31 16 47 10Z"/>
    <path d="M250 137c-15-9-29-9-42-2 15 9 29 10 42 2Z"/>
    <path d="M203 27c14 11 28 14 43 10-13-12-27-15-43-10Z"/>
  </g>
</svg>
