<svg xmlns="http://www.w3.org/2000/svg" viewBox="0 0 360 280" fill="none">
  <g stroke="#3f474b" stroke-linecap="round" stroke-linejoin="round">
    <path d="M0 253c58-3 108-17 149-42 36-22 64-50 99-64 31-13 66-15 107-7" stroke-width="6" opacity=".5"/>
    <path d="M0 226c48-1 90-12 125-33 31-19 55-42 85-54 28-11 59-13 95-7" stroke-width="3.5" opacity=".34"/>
  </g>
  <g stroke="#7b2d3b" stroke-linecap="round" stroke-linejoin="round">
    <path d="M22 278c11-45 29-80 54-106 18-19 31-42 38-69" stroke-width="6" opacity=".58"/>
    <path d="M56 194c-17-10-30-23-40-40m53 26c18-13 31-29 39-49m-71 91c-15 2-28-1-40-8" stroke-width="3.5" opacity=".46"/>
  </g>
  <g stroke="#647d7a" stroke-width="2.5" opacity=".44">
    <path d="M10 245c39 4 75-1 108-15 27-12 56-15 86-9"/>
    <path d="M28 259c34 1 64-5 91-18 24-11 48-14 74-10"/>
  </g>
  <g fill="#f4f4f0" stroke="#8e6b41" stroke-width="2" opacity=".88">
    <circle cx="48" cy="218" r="8"/>
    <circle cx="73" cy="195" r="5"/>
    <circle cx="98" cy="166" r="3.5"/>
  </g>
  <path d="M132 228l22-21 26 4 18-18 29 6" stroke="#9a784d" stroke-width="2.5" stroke-linecap="round" opacity=".5"/>
</svg>
