<svg xmlns="http://www.w3.org/2000/svg" viewBox="0 0 420 260" fill="none">
  <g stroke="#3f474b" stroke-linecap="round" stroke-linejoin="round">
    <path d="M420 24c-58 4-108 20-149 48-34 23-61 53-96 70-31 15-69 21-115 18" stroke-width="6" opacity=".52"/>
    <path d="M420 58c-48 5-89 19-123 42-29 20-52 45-82 59-27 13-59 19-97 18" stroke-width="3.5" opacity=".36"/>
    <path d="M408 9l-34 71 18-8 13 18z" fill="#7b2d3b" stroke="none" opacity=".74"/>
    <path d="M382 53l-47 107" stroke="#827d73" stroke-width="4" opacity=".58"/>
  </g>
  <path d="M420 118c-35-13-66-10-91 9-23 17-49 22-78 15-25-6-49-2-72 11" stroke="#7b2d3b" stroke-width="5" stroke-linecap="round" opacity=".5"/>
  <path d="M419 145c-31-9-58-5-80 12-19 15-40 20-64 16" stroke="#9a784d" stroke-width="2.5" stroke-linecap="round" opacity=".5"/>
  <g fill="#f4f4f0" stroke="#8e6b41" stroke-width="2" opacity=".86">
    <circle cx="367" cy="87" r="8"/>
    <circle cx="345" cy="102" r="5"/>
    <circle cx="326" cy="116" r="3.5"/>
  </g>
  <g stroke="#647d7a" stroke-width="2.5" opacity=".42">
    <path d="M405 194h-58l-18 17h-51"/>
    <path d="M390 211h-35l-15 14h-32"/>
  </g>
</svg>
