<svg xmlns="http://www.w3.org/2000/svg" viewBox="0 0 360 280" fill="none">
  <g stroke="#3f649d" stroke-linecap="round" stroke-linejoin="round">
    <path d="M0 255c56-2 105-15 145-39 35-22 61-52 95-67 31-14 67-17 112-10" stroke-width="7" opacity=".66"/>
    <path d="M0 226c49 0 88-10 121-29 30-18 52-43 81-55 28-12 61-14 99-8" stroke-width="4" opacity=".48"/>
  </g>
  <g stroke="#8a789f" stroke-linecap="round" stroke-linejoin="round">
    <path d="M34 259c4-35 17-65 40-91 18-21 28-43 29-67" stroke-width="7" opacity=".72"/>
    <path d="M72 176c-16-9-29-22-38-40m50 26c17-13 29-29 35-49m-73 91c-15 1-29-3-42-12" stroke-width="4" opacity=".66"/>
    <path d="M102 110c-10-8-17-18-21-30m37 34c13-9 21-20 25-34" stroke-width="3" opacity=".54"/>
  </g>
  <g fill="#f6f8fc" stroke="#7567a5" stroke-width="2">
    <circle cx="53" cy="213" r="8"/>
    <circle cx="78" cy="190" r="5"/>
    <circle cx="104" cy="161" r="4"/>
  </g>
  <g stroke="#758db8" stroke-width="2.5" opacity=".64">
    <circle cx="145" cy="207" r="10"/>
    <circle cx="171" cy="184" r="6"/>
    <circle cx="193" cy="213" r="4"/>
    <circle cx="219" cy="169" r="5"/>
  </g>
</svg>
