<svg xmlns="http://www.w3.org/2000/svg" viewBox="0 0 420 260" fill="none">
  <g stroke="#3f649d" stroke-linecap="round" stroke-linejoin="round">
    <path d="M420 30c-59-7-111 1-155 24-39 21-65 52-103 68-35 15-78 17-132 7" stroke-width="7" opacity=".72"/>
    <path d="M420 67c-54-5-98 4-132 26-29 19-51 44-83 58-31 13-67 17-109 12" stroke-width="4" opacity=".52"/>
    <path d="M398 103c-34-2-61 5-84 20-20 14-36 33-59 43-20 9-44 13-72 11" stroke-width="2.5" opacity=".38"/>
  </g>
  <g stroke="#758db8" stroke-width="2.5" opacity=".68">
    <circle cx="367" cy="119" r="11"/>
    <circle cx="337" cy="145" r="6"/>
    <circle cx="390" cy="158" r="5"/>
    <circle cx="308" cy="177" r="4"/>
  </g>
  <g fill="#f6f8fc" stroke="#7567a5" stroke-width="2">
    <circle cx="384" cy="45" r="9"/>
    <circle cx="360" cy="58" r="6"/>
    <circle cx="342" cy="72" r="4"/>
  </g>
  <path d="M419 191c-32-14-60-14-85 0-24 13-48 17-73 10-22-6-43-4-64 7" stroke="#8ab6c4" stroke-width="3" stroke-linecap="round" opacity=".45"/>
</svg>
